<svg width="24" height="24" viewBox="0 0 24 24" fill="none" xmlns="http://www.w3.org/2000/svg">
<path d="M13 5L11 5" stroke="#055B83" stroke-width="1.5" stroke-linecap="round"/>
<path d="M6 6C6 4.11438 6 3.17157 6.58579 2.58579C7.17157 2 8.11438 2 10 2H14C15.8856 2 16.8284 2 17.4142 2.58579C18 3.17157 18 4.11438 18 6V18C18 19.8856 18 20.8284 17.4142 21.4142C16.8284 22 15.8856 22 14 22H10C8.11438 22 7.17157 22 6.58579 21.4142C6 20.8284 6 19.8856 6 18V6Z" stroke="#055B83" stroke-width="1.5" stroke-linejoin="round"/>
<path d="M13.875 10.2857H11.375C11.2092 10.2857 11.0503 10.3459 10.9331 10.4531C10.8158 10.5602 10.75 10.7056 10.75 10.8571C10.75 11.0087 10.8158 11.154 10.9331 11.2612C11.0503 11.3684 11.2092 11.4286 11.375 11.4286H12.625C13.1223 11.4286 13.5992 11.6092 13.9508 11.9307C14.3025 12.2522 14.5 12.6882 14.5 13.1429C14.5 13.5975 14.3025 14.0336 13.9508 14.355C14.3169 14.355 13.1223 14.8571 12.625 14.8571V15.4286C12.625 15.5801 12.5592 15.7255 12.4419 15.8326C12.3247 15.9398 12.1658 16 12 16C11.8342 16 11.6753 15.9398 11.5581 15.8326C11.4408 15.7255 11.375 15.5801 11.375 15.4286V14.8571H10.125C9.95924 14.8571 9.80027 14.7969 9.68306 14.6898C9.56585 14.5826 9.5 14.4373 9.5 14.2857C9.5 14.1342 9.56585 13.9888 9.68306 13.8817C9.80027 13.7745 9.95924 13.7143 10.125 13.7143H12.625C12.7908 13.7143 12.9497 13.6541 13.0669 13.5469C13.1842 13.4398 13.25 13.2944 13.25 13.1429C13.25 12.9913 13.1842 12.846 13.0669 12.7388C12.9497 12.6316 12.7908 12.5714 12.625 12.5714H11.375C10.8777 12.5714 10.4008 12.3908 10.0492 12.0693C9.69754 11.7478 9.5 11.3118 9.5 10.8571C9.5 10.4025 9.69754 9.96645 10.0492 9.64496C10.4008 9.32347 10.8777 9.14286 11.375 9.14286V8.57143C11.375 8.41988 11.4408 8.27453 11.5581 8.16737C11.6753 8.0602 11.8342 8 12 8C12.1658 8 12.3247 8.0602 12.4419 8.16737C12.5592 8.27453 12.625 8.41988 12.625 8.57143V9.14286H13.875C14.0408 9.14286 14.1997 9.20306 14.3169 9.31022C14.4342 9.41739 14.5 9.56273 14.5 9.71429C14.5 9.86584 14.4342 10.0112 14.3169 10.1183C14.1997 10.2255 14.0408 10.2857 13.875 10.2857Z" fill="#055B83"/>
<circle cx="12" cy="19" r="1" fill="#055B83"/>
</svg>
