<svg width="24" height="24" viewBox="0 0 24 24" fill="none" xmlns="http://www.w3.org/2000/svg">
<path d="M9 18L10 18" stroke="#055B83" stroke-width="1.5" stroke-linecap="round"/>
<path d="M9 15L10 15" stroke="#055B83" stroke-width="1.5" stroke-linecap="round"/>
<path d="M13 18L14 18" stroke="#055B83" stroke-width="1.5" stroke-linecap="round"/>
<path d="M13 15L14 15" stroke="#055B83" stroke-width="1.5" stroke-linecap="round"/>
<path d="M4 6C4 4.89543 4.89543 4 6 4H17C18.1046 4 19 4.89543 19 6V13.0961C19 13.3627 18.9467 13.6266 18.8433 13.8722L18.1567 15.5028C18.0533 15.7484 18 16.0123 18 16.2789V18.25V21C18 22.1046 17.1046 23 16 23H7C5.89543 23 5 22.1046 5 21V18.25V16.2789C5 16.0123 4.94671 15.7484 4.84327 15.5028L4.15673 13.8722C4.05329 13.6266 4 13.3627 4 13.0961V6Z" stroke="#055B83" stroke-width="1.5" stroke-linejoin="round"/>
<path d="M7.5 4V2.5C7.5 1.94772 7.94772 1.5 8.5 1.5H15C15.5523 1.5 16 1.94772 16 2.5V4" stroke="#055B83" stroke-width="1.5" stroke-linecap="round" stroke-linejoin="round"/>
<rect x="7" y="7" width="9" height="4" stroke="#055B83" stroke-width="1.5" stroke-linejoin="round"/>
</svg>
