<svg width="768" height="307" viewBox="0 0 768 307" fill="none" xmlns="http://www.w3.org/2000/svg">
<g opacity="0.8" filter="url(#filter0_d_2346_210149)">
<path d="M709 30C720.046 30 729 38.9543 729 50L729 203.367C729 213.861 720.889 222.571 710.421 223.316L386.417 246.399C385.474 246.466 384.526 246.466 383.583 246.4L57.5869 223.309C47.1158 222.568 39 213.857 39 203.359L39 50C39 38.9543 47.9543 30 59 30L709 30Z" fill="white"/>
<path d="M709 30.5C719.77 30.5 728.5 39.2304 728.5 50L728.5 203.367C728.5 213.599 720.592 222.091 710.386 222.818L386.382 245.9C385.462 245.966 384.538 245.966 383.618 245.901L57.6222 222.811C47.4129 222.087 39.5 213.594 39.5 203.359L39.5 50C39.5 39.2304 48.2304 30.5 59 30.5L709 30.5Z" stroke="#F1F4FE"/>
</g>
<defs>
<filter id="filter0_d_2346_210149" x="-1" y="-1.52588e-05" width="780" height="306.45" filterUnits="userSpaceOnUse" color-interpolation-filters="sRGB">
<feFlood flood-opacity="0" result="BackgroundImageFix"/>
<feColorMatrix in="SourceAlpha" type="matrix" values="0 0 0 0 0 0 0 0 0 0 0 0 0 0 0 0 0 0 127 0" result="hardAlpha"/>
<feOffset dx="5" dy="15"/>
<feGaussianBlur stdDeviation="22.5"/>
<feColorMatrix type="matrix" values="0 0 0 0 0.675 0 0 0 0 0.794231 0 0 0 0 1 0 0 0 0.25 0"/>
<feBlend mode="normal" in2="BackgroundImageFix" result="effect1_dropShadow_2346_210149"/>
<feBlend mode="normal" in="SourceGraphic" in2="effect1_dropShadow_2346_210149" result="shape"/>
</filter>
</defs>
</svg>
