<svg width="290" height="252" viewBox="0 0 290 252" fill="none" xmlns="http://www.w3.org/2000/svg">
<path opacity="0.8" d="M267.386 0.980915C279.366 -0.598297 290 8.72557 290 20.8094L290 215.35C290 225.385 282.563 233.867 272.614 235.178L147.614 251.655C145.879 251.884 144.121 251.884 142.386 251.655L17.3862 235.178C7.43691 233.867 -9.93932e-06 225.385 -9.50066e-06 215.35L-9.9703e-07 20.8094C-4.6883e-07 8.72556 10.6336 -0.598308 22.6138 0.980906L142.386 16.7692C144.121 16.9979 145.879 16.9979 147.614 16.7692L267.386 0.980915Z" fill="url(#paint0_linear_2098_211608)"/>
<defs>
<linearGradient id="paint0_linear_2098_211608" x1="319" y1="-66.9941" x2="156.555" y2="357.38" gradientUnits="userSpaceOnUse">
<stop stop-color="#055B83"/>
<stop offset="1" stop-color="#05BBD3"/>
</linearGradient>
</defs>
</svg>
