<svg width="400" height="364" viewBox="0 0 380 344" fill="none" xmlns="http://www.w3.org/2000/svg">
<g opacity="0.8" filter="url(#filter0_d_2081_207921)">
<path d="M40 50C40 38.9543 48.9543 30 60 30H289.775C299.412 30 307.678 36.8718 309.439 46.3462L329.321 153.346C329.77 155.761 329.77 158.239 329.321 160.654L309.439 267.654C307.678 277.128 299.412 284 289.775 284H60C48.9543 284 40 275.046 40 264V50Z" fill="white"/>
<path d="M40.5 50C40.5 39.2305 49.2304 30.5 60 30.5H289.775C299.171 30.5 307.231 37.2 308.947 46.4376L328.829 153.438C329.267 155.792 329.267 158.208 328.829 160.562L308.947 267.562C307.231 276.8 299.171 283.5 289.775 283.5H60C49.2304 283.5 40.5 274.77 40.5 264V50Z" stroke="#F1F4FE"/>
</g>
<defs>
<filter id="filter0_d_2081_207921" x="0" y="0" width="379.658" height="344" filterUnits="userSpaceOnUse" color-interpolation-filters="sRGB">
<feFlood flood-opacity="0" result="BackgroundImageFix"/>
<feColorMatrix in="SourceAlpha" type="matrix" values="0 0 0 0 0 0 0 0 0 0 0 0 0 0 0 0 0 0 127 0" result="hardAlpha"/>
<feOffset dx="5" dy="15"/>
<feGaussianBlur stdDeviation="22.5"/>
<feColorMatrix type="matrix" values="0 0 0 0 0.675 0 0 0 0 0.794231 0 0 0 0 1 0 0 0 0.25 0"/>
<feBlend mode="normal" in2="BackgroundImageFix" result="effect1_dropShadow_2081_207921"/>
<feBlend mode="normal" in="SourceGraphic" in2="effect1_dropShadow_2081_207921" result="shape"/>
</filter>
</defs>
</svg>
